<svg width="24" height="24" viewBox="0 0 24 24" fill="none" xmlns="http://www.w3.org/2000/svg">
<g id="delete">
<g id="toolbar-delete">
<g id="icon">
<g id="Path">
<path d="M3 6H5H21" stroke="#262626" stroke-width="1.5" stroke-linecap="round" stroke-linejoin="round"/>
<path d="M3 6H5H21" stroke="black" stroke-opacity="0.2" stroke-width="1.5" stroke-linecap="round" stroke-linejoin="round"/>
</g>
<g id="Shape">
<path d="M19 6V20C19 21.1046 18.1046 22 17 22H7C5.89543 22 5 21.1046 5 20V6M8 6V4C8 2.89543 8.89543 2 10 2H14C15.1046 2 16 2.89543 16 4V6" stroke="#262626" stroke-width="1.5" stroke-linecap="round" stroke-linejoin="round"/>
<path d="M19 6V20C19 21.1046 18.1046 22 17 22H7C5.89543 22 5 21.1046 5 20V6M8 6V4C8 2.89543 8.89543 2 10 2H14C15.1046 2 16 2.89543 16 4V6" stroke="black" stroke-opacity="0.2" stroke-width="1.5" stroke-linecap="round" stroke-linejoin="round"/>
</g>
</g>
</g>
</g>
</svg>
